<svg width="18" height="18" viewBox="0 0 24 24" fill="none" xmlns="http://www.w3.org/2000/svg"><path fill-rule="evenodd" clip-rule="evenodd" d="M1.4502 8C1.4502 5.92893 3.12913 4.25 5.2002 4.25H18.8002C20.8713 4.25 22.5502 5.92893 22.5502 8V9.1998C22.5502 9.61413 22.2143 9.95 21.8 9.95C20.6678 9.95 19.75 10.8678 19.75 12C19.75 13.1322 20.6678 14.05 21.8 14.05C22.2144 14.05 22.5502 14.386 22.5502 14.8002V16C22.5502 18.0711 20.8713 19.75 18.8002 19.75H5.2002C3.12913 19.75 1.4502 18.0711 1.4502 16V14.9C1.4502 14.4224 1.83379 14.0642 2.27395 14.0487C3.37161 14.01 4.25 13.1074 4.25 12C4.25 10.8926 3.37161 9.98997 2.27395 9.9513C1.83379 9.93579 1.4502 9.57765 1.4502 9.10001V8ZM5.2002 5.75C3.95755 5.75 2.9502 6.75736 2.9502 8V8.52948C4.55069 8.87387 5.75 10.2967 5.75 12C5.75 13.7033 4.55069 15.1261 2.9502 15.4705V16C2.9502 17.2426 3.95756 18.25 5.2002 18.25H18.8002C20.0428 18.25 21.0502 17.2426 21.0502 16V15.4707C19.4497 15.1265 18.25 13.7034 18.25 12C18.25 10.2966 19.4497 8.87346 21.0502 8.52933V8C21.0502 6.75736 20.0428 5.75 18.8002 5.75H5.2002Z" fill="#fff"></path><path fill-rule="evenodd" clip-rule="evenodd" d="M14.7998 4.9502C15.214 4.9502 15.5498 5.28598 15.5498 5.7002V18.3002C15.5498 18.7144 15.214 19.0502 14.7998 19.0502C14.3856 19.0502 14.0498 18.7144 14.0498 18.3002V5.7002C14.0498 5.28598 14.3856 4.9502 14.7998 4.9502Z" fill="#fff"></path></svg>