<svg width="18" height="18" viewBox="0 0 25 25" fill="none" xmlns="http://www.w3.org/2000/svg"><path fill-rule="evenodd" clip-rule="evenodd" d="M12.5006 3.24988C10.5478 3.24988 8.96484 4.83287 8.96484 6.78559C8.96484 8.73831 10.5478 10.3213 12.5006 10.3213C14.4533 10.3213 16.0363 8.73831 16.0363 6.78559C16.0363 4.83287 14.4533 3.24988 12.5006 3.24988ZM7.46484 6.78559C7.46484 4.00444 9.71941 1.74988 12.5006 1.74988C15.2817 1.74988 17.5363 4.00444 17.5363 6.78559C17.5363 9.56674 15.2817 11.8213 12.5006 11.8213C9.71941 11.8213 7.46484 9.56674 7.46484 6.78559Z" fill="#fff"></path><path fill-rule="evenodd" clip-rule="evenodd" d="M4.80958 16.6659C6.36682 15.0022 8.89944 13.7499 12.7857 13.7499C16.672 13.7499 19.2046 15.0022 20.7618 16.6659C22.2995 18.3087 22.8214 20.2846 22.8214 21.6427C22.8214 22.0569 22.4856 22.3927 22.0714 22.3927H3.5C3.08579 22.3927 2.75 22.0569 2.75 21.6427C2.75 20.2846 3.27196 18.3087 4.80958 16.6659ZM4.31378 20.8927H21.2576C21.1016 19.93 20.64 18.7308 19.6667 17.691C18.4382 16.3785 16.328 15.2499 12.7857 15.2499C9.24342 15.2499 7.13318 16.3785 5.90471 17.691C4.93143 18.7308 4.46986 19.93 4.31378 20.8927Z" fill="#fff"></path></svg>